<svg width="138" height="32" viewBox="0 0 138 32" fill="none" xmlns="http://www.w3.org/2000/svg">
<path d="M8.17778 0.000930824L0.179199 7.99951L8.17778 15.9981L16.1764 7.99951L8.17778 0.000930824Z" fill="#FAA831"/>
<path d="M8.17802 15.9996L0.179443 23.9982L8.17802 31.9968L16.1766 23.9982L8.17802 15.9996Z" fill="#FAA831"/>
<path fill-rule="evenodd" clip-rule="evenodd" d="M8.18066 32L16.1763 23.9985L24.1777 32H8.18066Z" fill="#269183"/>
<path fill-rule="evenodd" clip-rule="evenodd" d="M8.18066 0H24.1777L16.1763 8.00145L8.18066 0Z" fill="#269183"/>
<path fill-rule="evenodd" clip-rule="evenodd" d="M0.179199 8.00146L8.18065 15.9971L0.179199 23.9986V8.00146Z" fill="#F16136"/>
<path fill-rule="evenodd" clip-rule="evenodd" d="M16.1763 23.9985L24.1777 15.9971L32.1792 23.9985L24.1777 32L16.1763 23.9985Z" fill="#80CAA9"/>
<path fill-rule="evenodd" clip-rule="evenodd" d="M16.1763 8.00145L24.1777 0L32.1792 8.00145L24.1777 15.9971L16.1763 8.00145Z" fill="#80CAA9"/>
<path d="M47.8678 21.729C48.6941 21.729 49.4797 21.5603 50.2129 21.2227C50.952 20.891 51.6561 20.3848 52.3311 19.7097L54.2864 21.8279C53.4193 22.695 52.4184 23.3759 51.2895 23.8647C50.1605 24.3535 48.9792 24.5979 47.7397 24.5979C46.5468 24.5979 45.4295 24.3709 44.3879 23.9287C43.3462 23.4864 42.4442 22.8812 41.6819 22.1189C40.9254 21.3624 40.3202 20.4546 39.878 19.4013C39.4299 18.348 39.2087 17.2133 39.2087 15.9971C39.2087 14.8041 39.4299 13.681 39.878 12.6277C40.3202 11.5744 40.9254 10.6608 41.6819 9.89267C42.4442 9.12453 43.3462 8.51351 44.3879 8.07125C45.4295 7.62317 46.5468 7.40204 47.7397 7.40204C48.9792 7.40204 50.1838 7.64645 51.3535 8.13526C52.529 8.62408 53.5473 9.29911 54.4144 10.172L52.366 12.3833C51.7376 11.7083 51.0276 11.1962 50.2478 10.8354C49.4681 10.4804 48.6534 10.3 47.8038 10.3C46.3082 10.3 45.0396 10.8528 43.998 11.9585C42.9505 13.07 42.4326 14.4142 42.4326 15.9971C42.4326 17.6264 42.9563 18.9881 44.0096 20.088C45.0629 21.182 46.3489 21.729 47.8678 21.729ZM60.1813 0.791382V24.3011H56.9225V1.50715L60.1813 0.791382ZM67.2167 7.72792V17.5624C67.2167 18.8659 67.5892 19.8959 68.3398 20.6583C69.0847 21.4148 70.0798 21.793 71.3193 21.793C72.1864 21.793 72.9661 21.6068 73.6645 21.2227C74.3569 20.8445 74.933 20.3091 75.3869 19.6108V7.72792H78.6457V24.3011H75.3869V22.6426C74.7352 23.2944 73.9962 23.789 73.1582 24.1265C72.3202 24.4582 71.4066 24.627 70.4057 24.627C68.5144 24.627 66.9723 24.0218 65.7677 22.8056C64.5632 21.5893 63.958 20.024 63.958 18.1153V7.72792H67.2167ZM80.9269 22.1538L82.6843 20.0065C83.5513 20.6757 84.4359 21.1936 85.3378 21.5486C86.2398 21.9094 87.1535 22.0898 88.0903 22.0898C89.26 22.0898 90.2144 21.8629 90.9534 21.4031C91.6925 20.9492 92.0649 20.3498 92.0649 19.6108C92.0649 19.0289 91.8438 18.5633 91.4131 18.2142C90.9767 17.865 90.3017 17.6264 89.3939 17.4984L86.3969 17.0736C84.7676 16.835 83.5339 16.3288 82.7017 15.5606C81.8638 14.7867 81.4448 13.7625 81.4448 12.4822C81.4448 10.9809 82.0442 9.77047 83.2371 8.85103C84.43 7.92577 85.9954 7.46605 87.9274 7.46605C89.1436 7.46605 90.2958 7.64063 91.3957 7.98978C92.4897 8.33312 93.5604 8.86849 94.6021 9.58425L92.9436 11.7316C92.03 11.1264 91.1454 10.6841 90.29 10.4164C89.4288 10.1429 88.5675 10.0091 87.7005 10.0091C86.6995 10.0091 85.8965 10.2127 85.2913 10.6259C84.6803 11.0391 84.3777 11.5803 84.3777 12.2553C84.3777 12.8605 84.5872 13.3202 85.012 13.6403C85.4368 13.9545 86.1351 14.1873 87.1127 14.3386L90.1096 14.7634C91.739 15.002 92.9785 15.5082 93.8397 16.2938C94.6952 17.0736 95.1258 18.1036 95.1258 19.3839C95.1258 20.1229 94.9454 20.8154 94.5846 21.4555C94.2296 22.0956 93.7408 22.6426 93.1182 23.0965C92.5013 23.5562 91.7681 23.917 90.9243 24.1905C90.0747 24.4582 89.1611 24.5979 88.1893 24.5979C86.7519 24.5979 85.4135 24.3884 84.1624 23.9752C82.917 23.5621 81.8347 22.9569 80.9269 22.1538ZM99.4553 20.1985V10.463H95.9347V7.72792H99.4553V3.49151L102.679 2.71173V7.72792H107.562V10.463H102.679V19.4537C102.679 20.2975 102.871 20.8969 103.249 21.2402C103.628 21.5893 104.25 21.7639 105.123 21.7639C105.577 21.7639 105.985 21.7348 106.345 21.6825C106.7 21.6301 107.084 21.5253 107.498 21.374V24.1091C107.067 24.2604 106.561 24.3768 105.985 24.4641C105.408 24.5513 104.885 24.5979 104.407 24.5979C102.796 24.5979 101.574 24.2196 100.724 23.4748C99.8801 22.7241 99.4553 21.6301 99.4553 20.1985ZM123.978 22.4157C123.023 23.1547 122.022 23.7017 120.981 24.0567C119.939 24.4175 118.798 24.5979 117.559 24.5979C116.343 24.5979 115.208 24.3709 114.143 23.9287C113.078 23.4864 112.153 22.8812 111.373 22.1189C110.593 21.3624 109.977 20.4546 109.534 19.4013C109.086 18.348 108.865 17.2133 108.865 15.9971C108.865 14.8041 109.086 13.6868 109.517 12.6452C109.953 11.6035 110.535 10.7015 111.274 9.93923C112.013 9.18273 112.892 8.57753 113.916 8.13526C114.934 7.68718 116.023 7.46605 117.169 7.46605C118.298 7.46605 119.357 7.68718 120.346 8.13526C121.336 8.57753 122.179 9.18855 122.884 9.95669C123.594 10.7306 124.152 11.6443 124.565 12.7092C124.973 13.7741 125.182 14.9147 125.182 16.1309V17.0736H112.089C112.31 18.4411 112.938 19.5759 113.98 20.4779C115.022 21.3799 116.261 21.8279 117.693 21.8279C118.496 21.8279 119.264 21.6999 120.003 21.438C120.742 21.1762 121.371 20.8212 121.894 20.3615L123.978 22.4157ZM117.105 10.2011C115.866 10.2011 114.789 10.6143 113.864 11.4406C112.944 12.2669 112.362 13.326 112.124 14.6295H121.958C121.72 13.3726 121.149 12.3193 120.247 11.4697C119.345 10.6259 118.298 10.2011 117.105 10.2011ZM128.278 24.3011V7.72792H131.531V9.84612C132.031 9.04307 132.672 8.42623 133.451 8.00142C134.237 7.58244 135.116 7.36712 136.093 7.36712C136.437 7.36712 136.745 7.3904 137.001 7.43114C137.263 7.47769 137.513 7.5417 137.752 7.62899V10.5619C137.449 10.4513 137.135 10.364 136.809 10.3C136.483 10.236 136.157 10.2011 135.831 10.2011C134.877 10.2011 134.022 10.4571 133.277 10.9692C132.526 11.4755 131.944 12.232 131.531 13.2329V24.3011H128.278Z" fill="#FEFEFE"/>
</svg>
