<svg width="124" height="124" viewBox="0 0 124 124" fill="none" xmlns="http://www.w3.org/2000/svg">
<mask id="mask0_2042_20009" style="mask-type:alpha" maskUnits="userSpaceOnUse" x="0" y="0" width="124" height="124">
<circle cx="62" cy="62" r="62" fill="#C4C4C4"/>
</mask>
<g mask="url(#mask0_2042_20009)">
<path fill-rule="evenodd" clip-rule="evenodd" d="M-149 127.727L-137.599 125.808C-126.254 123.863 -103.509 120 -80.7636 123.206C-58.0183 126.439 -35.273 136.767 -12.472 138.712C10.2733 140.63 33.0187 134.192 55.764 129.671C78.5094 125.151 101.255 122.575 112.6 121.288L124 120L124 197H112.599C101.254 197 78.509 197 55.7637 197C33.0183 197 10.273 197 -12.4723 197C-35.2733 197 -58.0186 197 -80.764 197C-103.509 197 -126.255 197 -137.6 197H-149L-149 127.727Z" fill="#566AB6"/>
</g>
<path d="M94 54.7419L49.6716 108.712L60.5522 68.9705H31L75.3284 15L64.4478 54.7419H94Z" fill="white"/>
</svg>
