<svg width="76" height="20" viewBox="0 0 76 20" fill="none" xmlns="http://www.w3.org/2000/svg">
<g clip-path="url(#clip0_2009_2990)">
<path d="M6.23587 1.5483e-06C5.91877 0.00013987 5.60767 0.0864744 5.33585 0.249771C5.06403 0.413067 4.84171 0.647183 4.69267 0.927076C4.54363 1.20697 4.47348 1.52211 4.48972 1.8388C4.50596 2.15548 4.60798 2.4618 4.78487 2.72498L5.53198 1.97893C5.50728 1.9045 5.49483 1.82657 5.49509 1.74816C5.49509 1.60227 5.53835 1.45966 5.61941 1.33836C5.70046 1.21706 5.81566 1.12252 5.95044 1.06669C6.08522 1.01086 6.23353 0.996251 6.37662 1.02471C6.5197 1.05317 6.65113 1.12342 6.75429 1.22658C6.85745 1.32974 6.9277 1.46117 6.95616 1.60426C6.98462 1.74734 6.97001 1.89565 6.91418 2.03043C6.85835 2.16521 6.76381 2.28041 6.64251 2.36146C6.52121 2.44252 6.3786 2.48578 6.23271 2.48578C6.15465 2.48595 6.07708 2.47349 6.003 2.4489L5.25695 3.19494C5.48337 3.34851 5.74267 3.44679 6.014 3.48188C6.28533 3.51696 6.5611 3.48788 6.81914 3.39696C7.07718 3.30604 7.31028 3.15583 7.49968 2.95841C7.68908 2.76099 7.82951 2.52187 7.90966 2.26029C7.98981 1.99871 8.00744 1.72196 7.96114 1.45232C7.91485 1.18268 7.80591 0.927672 7.64309 0.707807C7.48028 0.487942 7.26813 0.309359 7.02372 0.186425C6.77931 0.0634908 6.50946 -0.00036254 6.23587 1.5483e-06Z" fill="#34A853"/>
<path d="M5.54039 5.09479C5.54153 4.50426 5.35029 3.92942 4.9956 3.45728L4.02616 4.42566C4.17358 4.6953 4.22749 5.00619 4.17944 5.30972C4.13139 5.61325 3.98411 5.89229 3.76062 6.10322L4.28749 7.39089C4.67167 7.14346 4.98766 6.80363 5.20655 6.4025C5.42543 6.00137 5.54021 5.55175 5.54039 5.09479Z" fill="#FBBC04"/>
<path d="M2.83122 6.48474H2.80593C2.58917 6.48476 2.37541 6.43411 2.18169 6.33685C1.98797 6.23959 1.81967 6.0984 1.69021 5.92454C1.56075 5.75069 1.47371 5.54898 1.43604 5.33552C1.39837 5.12205 1.41111 4.90274 1.47325 4.69507C1.53539 4.48741 1.6452 4.29714 1.79392 4.13945C1.94265 3.98176 2.12617 3.86101 2.32985 3.78683C2.53352 3.71266 2.75171 3.68711 2.96702 3.71223C3.18232 3.73736 3.38877 3.81245 3.5699 3.93152L4.52985 2.97157C4.19011 2.69613 3.78924 2.50625 3.3609 2.41785C2.93256 2.32946 2.48926 2.34515 2.06824 2.46359C1.64722 2.58203 1.26076 2.79978 0.941339 3.09853C0.621913 3.39729 0.378841 3.76834 0.232539 4.1805C0.0862359 4.59267 0.0409745 5.03393 0.100556 5.46722C0.160137 5.90051 0.322822 6.31317 0.574945 6.67055C0.827069 7.02794 1.16127 7.3196 1.54948 7.52105C1.93769 7.7225 2.36857 7.82785 2.80593 7.82826C2.99135 7.82835 3.17631 7.80999 3.35809 7.77346L2.83122 6.48474Z" fill="#EA4335"/>
<path d="M6.27275 7.59847C5.66602 7.59785 5.06247 7.68625 4.48139 7.86085L5.24957 9.73756C5.58396 9.65469 5.9272 9.61294 6.2717 9.61322C7.23974 9.6135 8.17773 9.94941 8.92587 10.5637C9.67402 11.178 10.186 12.0327 10.3747 12.9822C10.5633 13.9317 10.4169 14.9172 9.96041 15.7708C9.50392 16.6245 8.76557 17.2935 7.87116 17.6638C6.97676 18.0341 5.98162 18.0828 5.0553 17.8017C4.12899 17.5206 3.32879 16.927 2.79106 16.122C2.25332 15.3171 2.01131 14.3506 2.10625 13.3872C2.20119 12.4239 2.62722 11.5232 3.31174 10.8387C3.60628 10.5451 3.94253 10.2966 4.30963 10.1011L3.54989 8.22966C2.18192 8.89962 1.10825 10.0495 0.533503 11.4601C-0.0412472 12.8707 -0.0769064 14.4435 0.433321 15.8787C0.943548 17.3139 1.96399 18.5113 3.3002 19.2425C4.6364 19.9738 6.19495 20.1879 7.67884 19.844C9.16273 19.5001 10.4682 18.6223 11.3465 17.3778C12.2249 16.1333 12.6146 14.6092 12.4415 13.0958C12.2684 11.5825 11.5446 10.1857 10.4079 9.1717C9.27124 8.1577 7.80124 7.59734 6.27802 7.59741L6.27275 7.59847Z" fill="#4285F4"/>
<path d="M18.4835 2.56482H20.2275V15.7292H26.6479V17.3867H18.4835V2.56482Z" fill="white"/>
<path d="M29.1758 16.6733C28.3885 16.206 27.7448 15.5312 27.3149 14.7229C26.8658 13.8848 26.6364 12.9466 26.6479 11.9958C26.6371 11.0465 26.8665 10.1098 27.3149 9.27293C27.7448 8.46456 28.3885 7.78985 29.1758 7.32245C29.9934 6.85253 30.9198 6.60522 31.8628 6.60522C32.8058 6.60522 33.7323 6.85253 34.5499 7.32245C35.3371 7.79029 35.981 8.46487 36.4118 9.27293C36.8604 10.1112 37.0899 11.0493 37.0789 12C37.0899 12.9507 36.8604 13.8888 36.4118 14.7271C35.9813 15.535 35.3377 16.2096 34.5509 16.6776C33.7334 17.1475 32.8069 17.3948 31.8639 17.3948C30.9209 17.3948 29.9944 17.1475 29.1769 16.6776L29.1758 16.6733ZM33.6015 15.3899C34.149 15.0696 34.5978 14.6048 34.8987 14.0464C35.2354 13.4164 35.4035 12.71 35.3865 11.9958C35.4033 11.2816 35.2353 10.5753 34.8987 9.94521C34.5987 9.38721 34.151 8.92244 33.6047 8.6017C33.0766 8.29228 32.4749 8.13068 31.8628 8.13384C31.2373 8.13138 30.6228 8.29853 30.0847 8.61748C29.5467 8.93644 29.1051 9.39529 28.807 9.94521C28.4712 10.5756 28.3035 11.2818 28.3202 11.9958C28.3035 12.7098 28.4711 13.4161 28.807 14.0464C29.0293 14.4541 29.331 14.8132 29.6943 15.1024C30.0576 15.3916 30.4752 15.6052 30.9224 15.7304C31.3695 15.8556 31.8373 15.89 32.298 15.8315C32.7587 15.773 33.203 15.6229 33.6047 15.3899H33.6015Z" fill="white"/>
<path d="M40.5119 16.6733C39.7251 16.2054 39.0816 15.5308 38.651 14.7229C38.2025 13.8846 37.973 12.9465 37.984 11.9958C37.9737 11.0465 38.2031 10.11 38.651 9.27293C39.0816 8.46501 39.7251 7.79044 40.5119 7.32245C41.3295 6.85253 42.256 6.60522 43.199 6.60522C44.142 6.60522 45.0685 6.85253 45.886 7.32245C46.6735 7.79 47.3175 8.46465 47.748 9.27293C48.1966 10.1112 48.426 11.0493 48.415 12C48.426 12.9507 48.1966 13.8888 47.748 14.7271C47.3178 15.5352 46.6741 16.2099 45.8871 16.6776C45.0695 17.1475 44.143 17.3948 43.2 17.3948C42.2571 17.3948 41.3306 17.1475 40.513 16.6776L40.5119 16.6733ZM44.9377 15.3899C45.4838 15.0689 45.9313 14.6042 46.2316 14.0464C46.5679 13.4162 46.7359 12.7099 46.7195 11.9958C46.7358 11.2817 46.5677 10.5755 46.2316 9.94521C45.9313 9.38744 45.4838 8.92274 44.9377 8.6017C44.4095 8.29228 43.8079 8.13068 43.1958 8.13384C42.5805 8.13162 41.9757 8.29309 41.4434 8.6017C40.8929 8.92019 40.4417 9.38531 40.14 9.94521C39.8034 10.5753 39.6353 11.2816 39.6521 11.9958C39.6352 12.71 39.8032 13.4164 40.14 14.0464C40.4417 14.6063 40.8929 15.0714 41.4434 15.3899C41.9757 15.6985 42.5805 15.86 43.1958 15.8578C43.8093 15.8617 44.4125 15.7 44.9419 15.3899H44.9377Z" fill="white"/>
<path d="M49.6678 2.56482H51.4107V11.9347L56.6584 6.60381H58.8712V6.686L54.4455 11.1549L58.671 17.3088V17.3867H56.5804L53.2158 12.3604L51.4107 14.1697V17.3867H49.6678V2.56482Z" fill="white"/>
<path d="M60.9208 16.6934C60.154 16.2322 59.5302 15.5672 59.1189 14.7724C58.679 13.92 58.4571 12.9718 58.473 12.0127C58.4657 11.0796 58.6742 10.1575 59.082 9.31828C59.4667 8.5118 60.0656 7.82652 60.8133 7.33725C61.5807 6.84122 62.4782 6.58448 63.3918 6.59963C64.3866 6.59963 65.2492 6.82197 65.9798 7.26665C66.7066 7.70654 67.2918 8.34585 67.6658 9.10859C68.069 9.94815 68.269 10.8708 68.2496 11.802C68.2489 11.9752 68.2355 12.1481 68.2095 12.3193H60.1642C60.2043 13.0921 60.3901 13.7426 60.7217 14.2709C61.0271 14.7761 61.4642 15.1888 61.9861 15.4648C62.48 15.726 63.0302 15.8628 63.5889 15.8631C64.9152 15.8631 65.9169 15.2526 66.5941 14.0317L68.0272 14.7282C67.6185 15.5202 67.0074 16.1899 66.2559 16.6692C65.4993 17.1476 64.5903 17.3868 63.5288 17.3868C62.612 17.402 61.709 17.1619 60.9208 16.6934ZM66.4582 10.921C66.426 10.4765 66.3042 10.0432 66.0999 9.64705C65.8714 9.20527 65.5272 8.83379 65.1042 8.57224C64.6532 8.28 64.0827 8.13388 63.3929 8.13388C62.6424 8.11679 61.9145 8.3914 61.3623 8.89995C60.8052 9.41136 60.4403 10.0851 60.2675 10.921H66.4582Z" fill="white"/>
<path d="M69.375 6.60586H71.0357V8.60797H71.1179C71.323 8.03333 71.7196 7.55458 72.3076 7.17172C72.8522 6.80397 73.4934 6.60528 74.1506 6.60059C74.5721 6.58987 74.9912 6.66703 75.3813 6.82715V8.69332C74.922 8.46991 74.4168 8.35731 73.9061 8.36455C73.4077 8.36216 72.9207 8.51298 72.5109 8.79659C72.0805 9.09166 71.7312 9.49026 71.4951 9.9557C71.2425 10.4414 71.1123 10.9815 71.1158 11.5289V17.3867H69.375V6.60586Z" fill="white"/>
</g>
<defs>
<clipPath id="clip0_2009_2990">
<rect width="75.3119" height="20" fill="white" transform="translate(0.0725098)"/>
</clipPath>
</defs>
</svg>
